<?xml version="1.0" encoding="UTF-8"?>
<svg id="_圖層_1" data-name="圖層 1" xmlns="http://www.w3.org/2000/svg" xmlns:xlink="http://www.w3.org/1999/xlink" viewBox="0 0 8222.01 1700.79">
  <defs>
    <style>
      .cls-1 {
        fill: none;
      }

      .cls-2 {
        fill: #1f4e98;
        stroke-miterlimit: 10;
      }

      .cls-2, .cls-3 {
        stroke: #f39800;
        stroke-width: 3px;
      }

      .cls-4 {
        clip-path: url(#clippath-1);
      }

      .cls-3 {
        fill: #fff;
      }

      .cls-5 {
        fill: url(#_未命名漸層_4);
      }

      .cls-6 {
        clip-path: url(#clippath);
      }
    </style>
    <clipPath id="clippath">
      <rect class="cls-1" y="0" width="1700.79" height="1700.79"/>
    </clipPath>
    <clipPath id="clippath-1">
      <path class="cls-1" d="M655.89,675.89l-438.18,229.8c-7.12,3.73-11.57,11.1-11.57,19.14v488.31c0,24.95,14.13,47.74,36.48,58.83l394.05,195.56c15.13,7.51,32.88-3.5,32.88-20.39v-963.01c0-5.41-4.45-9.33-9.33-9.33-1.44,0-2.91.34-4.32,1.08M229.84,346.48c-14.57,7.57-23.71,22.62-23.71,39.04v442.01c0,8.11,8.6,13.35,15.8,9.62l435.16-225c7.65-3.95,12.45-11.84,12.45-20.45V117.98l-439.7,228.5ZM815.11,44.07l-87.37,44.64c-6.95,3.55-11.32,10.7-11.32,18.5v246.76c0,22.04,12.2,42.28,31.69,52.57l321.11,169.52c13.09,6.91,21.28,20.49,21.28,35.3v201.88c0,19.21-10.74,36.81-27.82,45.6l-320.5,164.93c-15.82,8.14-25.76,24.44-25.76,42.24v269.31c0,14.02,7.84,26.86,20.3,33.27l54.32,27.92c30.12,15.48,65.89,15.33,95.88-.41l573.15-300.94c21.12-11.09,34.35-32.98,34.35-56.84V393.2c0-19.14-10.63-36.7-27.59-45.57L887.29,44.42c-11.41-5.97-23.92-8.95-36.43-8.95s-24.52,2.87-35.75,8.6"/>
    </clipPath>
    <linearGradient id="_未命名漸層_4" data-name="未命名漸層 4" x1="1.07" y1="-40.5" x2="2.07" y2="-40.5" gradientTransform="translate(67044.81 -1705.83) rotate(90) scale(1634.48 -1634.48)" gradientUnits="userSpaceOnUse">
      <stop offset="0" stop-color="#3192d1"/>
      <stop offset=".94" stop-color="#153f97"/>
      <stop offset="1" stop-color="#153f97"/>
    </linearGradient>
  </defs>
  <path class="cls-3" d="M2064.51,1174.39v-486h729c21.94,0,40.92-7.59,56.95-22.78,16.03-16.03,24.05-35.44,24.05-58.22v-81h-810v-162h972v324c0,45.56-16.03,83.95-48.09,115.17-32.06,31.22-70.03,46.83-113.91,46.83h-648v324h-162Z"/>
  <path class="cls-3" d="M3198.51,1174.39v-486h729c21.94,0,40.92-7.59,56.95-22.78,16.03-16.03,24.05-35.44,24.05-58.22v-81h-648c-45.56,0-83.95-15.61-115.17-46.83-31.22-32.06-46.83-70.45-46.83-115.17h972v324c0,45.56-16.03,83.95-48.09,115.17-32.06,31.22-70.03,46.83-113.91,46.83h-162l324,324h-243l-324-324h-243v324h-162Z"/>
  <path class="cls-3" d="M4494.51,526.4c-45.56,0-83.95-15.61-115.17-46.83-31.22-32.06-46.83-70.45-46.83-115.17h972c0,45.56-16.03,83.95-48.09,115.17s-70.03,46.83-113.91,46.83h-648ZM4332.51,1174.39v-486h162v324h648v-324h162v486h-972Z"/>
  <path class="cls-2" d="M5466.51,1174.39v-648h648c44.72,0,82.69,16.03,113.91,48.09,32.06,32.06,48.09,70.03,48.09,113.91v486h-162v-405c0-21.94-8.02-40.92-24.05-56.95s-35.02-24.05-56.95-24.05h-405v486h-162Z"/>
  <path class="cls-2" d="M6600.51,1174.39c-45.56,0-83.95-15.61-115.17-46.83-31.22-32.06-46.83-70.45-46.83-115.17v-324c0-44.72,15.61-82.69,46.83-113.91s70.45-48.09,115.17-48.09h648l-243,243h243l-162,162h-405l243-243h-243c-22.78,0-42.19,8.02-58.22,24.05-15.19,16.03-22.78,35.02-22.78,56.95v162c0,22.78,7.59,42.19,22.78,58.22,16.03,15.19,35.44,22.78,58.22,22.78h567c0,45.56-16.03,83.95-48.09,115.17s-70.03,46.83-113.91,46.83h-486Z"/>
  <path class="cls-2" d="M7734.51,1174.39c-45.56,0-83.95-15.61-115.17-46.83-31.22-32.06-46.83-70.45-46.83-115.17v-324h-162c0-44.72,15.61-82.69,46.83-113.91s70.45-48.09,115.17-48.09v-162h162v162h486c0,45.56-16.03,83.95-48.09,115.17s-70.03,46.83-113.91,46.83h-324v243c0,22.78,7.59,42.19,22.78,58.22,16.03,15.19,35.44,22.78,58.22,22.78h405c0,45.56-16.03,83.95-48.09,115.17s-70.03,46.83-113.91,46.83h-324Z"/>
  <g class="cls-6">
    <g class="cls-4">
      <rect class="cls-5" x="206.13" y="35.46" width="1288.28" height="1639.59"/>
    </g>
  </g>
</svg>